<?xml version="1.0" encoding="UTF-8" standalone="no"?>
<svg
   xmlns:dc="http://purl.org/dc/elements/1.1/"
   xmlns:cc="http://creativecommons.org/ns#"
   xmlns:rdf="http://www.w3.org/1999/02/22-rdf-syntax-ns#"
   xmlns:svg="http://www.w3.org/2000/svg"
   xmlns="http://www.w3.org/2000/svg"
   xmlns:sodipodi="http://sodipodi.sourceforge.net/DTD/sodipodi-0.dtd"
   xmlns:inkscape="http://www.inkscape.org/namespaces/inkscape"
   height="768"
   width="768"
   version="1.1"
   id="svg4"
   sodipodi:docname="databases.svg"
   inkscape:version="0.92.3 (2405546, 2018-03-11)">
  <metadata
     id="metadata10">
    <rdf:RDF>
      <cc:Work
         rdf:about="">
        <dc:format>image/svg+xml</dc:format>
        <dc:type
           rdf:resource="http://purl.org/dc/dcmitype/StillImage" />
        <dc:title></dc:title>
      </cc:Work>
    </rdf:RDF>
  </metadata>
  <defs
     id="defs8" />
  <sodipodi:namedview
     pagecolor="#ffffff"
     bordercolor="#666666"
     borderopacity="1"
     objecttolerance="10"
     gridtolerance="10"
     guidetolerance="10"
     inkscape:pageopacity="0"
     inkscape:pageshadow="2"
     inkscape:window-width="770"
     inkscape:window-height="706"
     id="namedview6"
     showgrid="false"
     inkscape:zoom="0.23046875"
     inkscape:cx="347.83148"
     inkscape:cy="605.28814"
     inkscape:window-x="-7"
     inkscape:window-y="0"
     inkscape:window-maximized="0"
     inkscape:current-layer="svg4" />
  <path
     d="m 384.00002,669.28814 c -140.1561,0 -253.83054,-34.03601 -253.83054,-75.93219 0,-22.91316 0,-47.97672 0,-75.93223 0,-6.59956 3.67659,-12.86577 8.96472,-18.98304 28.30011,32.70127 126.70903,56.94915 244.86582,56.94915 118.15675,0 216.56566,-24.24788 244.86577,-56.94915 5.28813,6.11727 8.96472,12.38348 8.96472,18.98304 0,21.98593 0,45.30723 0,75.93223 0,41.89618 -113.6949,75.93219 -253.83049,75.93219 z m 0,-151.86442 c -140.1561,0 -253.83054,-34.03601 -253.83054,-75.93218 0,-22.93154 0,-47.95831 0,-75.93221 0,-4.02264 1.69353,-7.93433 3.96609,-11.80865 v 0 c 1.28107,-2.42864 2.9746,-4.81991 4.99863,-7.17441 28.30011,32.68289 126.70903,56.94917 244.86582,56.94917 118.15675,0 216.56566,-24.26628 244.86577,-56.94917 2.02404,2.3545 3.71821,4.74577 4.99863,7.17441 v 0 c 2.27255,3.87432 3.96609,7.78601 3.96609,11.80865 0,21.98591 0,45.2888 0,75.93221 0,41.89617 -113.6949,75.93218 -253.83049,75.93218 z m 0,-151.86439 c -140.1561,0 -253.83054,-34.01764 -253.83054,-75.93221 0,-11.99432 0,-24.67442 0,-37.9661 0,-12.06847 0,-24.60026 0,-37.96612 0,-41.91457 113.67444,-75.93219 253.83054,-75.93219 140.13559,0 253.83049,34.01762 253.83049,75.93219 0,11.84602 0,24.4146 0,37.96612 0,11.62355 0,23.87711 0,37.9661 0,41.91457 -113.6949,75.93221 -253.83049,75.93221 z m 0,-189.83051 c -93.45131,0 -169.22036,16.96255 -169.22036,37.96608 0,21.00358 75.76905,37.96612 169.22036,37.96612 93.45125,0 169.22032,-16.96254 169.22032,-37.96612 0,-21.00353 -75.76907,-37.96608 -169.22032,-37.96608 z"
     id="path2"
     style="fill:#133b7b;fill-opacity:1;stroke-width:0.62620181"
     inkscape:connector-curvature="0" />
</svg>
