<?xml version="1.0" encoding="UTF-8" standalone="no"?>
<svg
   xmlns:dc="http://purl.org/dc/elements/1.1/"
   xmlns:cc="http://creativecommons.org/ns#"
   xmlns:rdf="http://www.w3.org/1999/02/22-rdf-syntax-ns#"
   xmlns:svg="http://www.w3.org/2000/svg"
   xmlns="http://www.w3.org/2000/svg"
   xmlns:sodipodi="http://sodipodi.sourceforge.net/DTD/sodipodi-0.dtd"
   xmlns:inkscape="http://www.inkscape.org/namespaces/inkscape"
   data-name="Layer 1"
   id="Layer_1"
   viewBox="0 0 32 32"
   version="1.1"
   sodipodi:docname="languages.svg"
   inkscape:version="0.92.3 (2405546, 2018-03-11)">
  <metadata
     id="metadata13">
    <rdf:RDF>
      <cc:Work
         rdf:about="">
        <dc:format>image/svg+xml</dc:format>
        <dc:type
           rdf:resource="http://purl.org/dc/dcmitype/StillImage" />
      </cc:Work>
    </rdf:RDF>
  </metadata>
  <sodipodi:namedview
     pagecolor="#ffffff"
     bordercolor="#666666"
     borderopacity="1"
     objecttolerance="10"
     gridtolerance="10"
     guidetolerance="10"
     inkscape:pageopacity="0"
     inkscape:pageshadow="2"
     inkscape:window-width="756"
     inkscape:window-height="480"
     id="namedview11"
     showgrid="false"
     inkscape:zoom="7.375"
     inkscape:cx="16"
     inkscape:cy="16"
     inkscape:window-x="0"
     inkscape:window-y="0"
     inkscape:window-maximized="0"
     inkscape:current-layer="Layer_1" />
  <defs
     id="defs4">
    <style
       id="style2">.cls-1{fill:#ba63c6;}</style>
  </defs>
  <title
     id="title6" />
  <path
     class="cls-1"
     d="M31.79,28.11l-7-14a2,2,0,0,0-3.58,0L18,20.56,15.3,18.73A17.13,17.13,0,0,0,19.91,9H22a2,2,0,0,0,0-4H14V3a2,2,0,0,0-4,0V5H2A2,2,0,0,0,2,9H15.86a13.09,13.09,0,0,1-3.79,7.28,13.09,13.09,0,0,1-3.19-4.95,2,2,0,1,0-3.77,1.34A17.1,17.1,0,0,0,8.9,18.75L3.84,22.37a2,2,0,0,0,2.33,3.25l5.93-4.24,4.08,2.79-2,3.93a2,2,0,0,0,3.58,1.79l.45-.89H23a2,2,0,0,0,0-4H20.24L23,19.47l5.21,10.42a2,2,0,0,0,3.58-1.79Z"
     id="path8"
     style="fill:#263238;fill-opacity:1" />
</svg>
