<?xml version="1.0" encoding="UTF-8" standalone="no"?>
<svg
   xmlns:dc="http://purl.org/dc/elements/1.1/"
   xmlns:cc="http://creativecommons.org/ns#"
   xmlns:rdf="http://www.w3.org/1999/02/22-rdf-syntax-ns#"
   xmlns:svg="http://www.w3.org/2000/svg"
   xmlns="http://www.w3.org/2000/svg"
   xmlns:sodipodi="http://sodipodi.sourceforge.net/DTD/sodipodi-0.dtd"
   xmlns:inkscape="http://www.inkscape.org/namespaces/inkscape"
   enable-background="new 0 0 128 128"
   height="128px"
   id="Layer_1"
   version="1.1"
   viewBox="0 0 128 128"
   width="128px"
   xml:space="preserve"
   sodipodi:docname="others.svg"
   inkscape:version="0.92.3 (2405546, 2018-03-11)"><metadata
     id="metadata15"><rdf:RDF><cc:Work
         rdf:about=""><dc:format>image/svg+xml</dc:format><dc:type
           rdf:resource="http://purl.org/dc/dcmitype/StillImage" /></cc:Work></rdf:RDF></metadata><defs
     id="defs13" /><sodipodi:namedview
     pagecolor="#ffffff"
     bordercolor="#666666"
     borderopacity="1"
     objecttolerance="10"
     gridtolerance="10"
     guidetolerance="10"
     inkscape:pageopacity="0"
     inkscape:pageshadow="2"
     inkscape:window-width="1366"
     inkscape:window-height="715"
     id="namedview11"
     showgrid="false"
     inkscape:zoom="1.84375"
     inkscape:cx="64"
     inkscape:cy="64"
     inkscape:window-x="-8"
     inkscape:window-y="-8"
     inkscape:window-maximized="1"
     inkscape:current-layer="Layer_1" /><g
     id="g8"
     style="fill:#133b7b;fill-opacity:1"
     transform="translate(-0.54237288,-25.491525)"><path
       d="M 36.496,77.5 C 36.494,77.496 36.489,77.492 36.484,77.49 34.32,75.336 31.334,74.004 28.037,74 h -8.075 c -3.167,0.002 -6.039,1.241 -8.178,3.244 -0.095,0.088 -0.195,0.17 -0.287,0.26 -0.024,0.025 -0.047,0.055 -0.071,0.08 C 9.309,79.744 8,82.707 8,85.976 v 8.049 c 0,3.219 1.272,6.136 3.332,8.288 0.059,0.061 0.11,0.126 0.169,0.186 0.034,0.033 0.07,0.063 0.104,0.095 2.157,2.104 5.104,3.405 8.358,3.407 h 8.075 c 3.167,-0.002 6.039,-1.241 8.179,-3.244 0.094,-0.088 0.194,-0.17 0.285,-0.26 0.024,-0.025 0.047,-0.055 0.071,-0.08 2.118,-2.16 3.426,-5.123 3.426,-8.392 v -8.049 c 0,-3.183 -1.243,-6.065 -3.26,-8.21 -0.083,-0.087 -0.156,-0.181 -0.243,-0.266 z"
       id="path2"
       style="fill:#133b7b;fill-opacity:1"
       inkscape:connector-curvature="0" /><path
       d="m 116.496,77.5 c -0.002,-0.004 -0.008,-0.008 -0.012,-0.01 -2.164,-2.154 -5.15,-3.486 -8.447,-3.49 h -8.075 c -3.167,0.002 -6.039,1.241 -8.178,3.244 -0.095,0.088 -0.195,0.17 -0.286,0.26 -0.025,0.025 -0.047,0.055 -0.072,0.08 C 89.309,79.744 88,82.707 88,85.976 v 8.049 c 0,3.219 1.272,6.136 3.332,8.288 0.059,0.061 0.109,0.126 0.168,0.186 0.034,0.033 0.07,0.063 0.105,0.095 2.156,2.104 5.104,3.405 8.357,3.407 h 8.076 c 3.166,-0.002 6.038,-1.241 8.179,-3.244 0.094,-0.088 0.194,-0.17 0.285,-0.26 0.024,-0.025 0.047,-0.055 0.071,-0.08 2.117,-2.16 3.426,-5.123 3.426,-8.392 v -8.049 c 0,-3.183 -1.243,-6.065 -3.26,-8.21 -0.083,-0.087 -0.157,-0.181 -0.243,-0.266 z"
       id="path4"
       style="fill:#133b7b;fill-opacity:1"
       inkscape:connector-curvature="0" /><path
       d="M 76.496,77.5 C 76.494,77.496 76.488,77.492 76.484,77.49 74.32,75.336 71.334,74.004 68.037,74 h -8.075 c -3.167,0.002 -6.039,1.241 -8.178,3.244 -0.095,0.088 -0.195,0.17 -0.287,0.26 -0.024,0.025 -0.047,0.055 -0.071,0.08 C 49.309,79.744 48,82.707 48,85.976 v 8.049 c 0,3.219 1.272,6.136 3.332,8.288 0.059,0.061 0.11,0.126 0.169,0.186 0.034,0.033 0.07,0.063 0.104,0.095 2.157,2.104 5.104,3.405 8.358,3.407 h 8.076 c 3.166,-0.002 6.038,-1.241 8.179,-3.244 0.094,-0.088 0.194,-0.17 0.285,-0.26 0.024,-0.025 0.047,-0.055 0.071,-0.08 C 78.691,100.257 80,97.294 80,94.025 v -8.049 c 0,-3.183 -1.243,-6.065 -3.26,-8.21 -0.084,-0.087 -0.158,-0.181 -0.244,-0.266 z"
       id="path6"
       style="fill:#133b7b;fill-opacity:1"
       inkscape:connector-curvature="0" /></g></svg>