<?xml version="1.0" encoding="UTF-8" standalone="no"?>
<svg
   xmlns:dc="http://purl.org/dc/elements/1.1/"
   xmlns:cc="http://creativecommons.org/ns#"
   xmlns:rdf="http://www.w3.org/1999/02/22-rdf-syntax-ns#"
   xmlns:svg="http://www.w3.org/2000/svg"
   xmlns="http://www.w3.org/2000/svg"
   xmlns:sodipodi="http://sodipodi.sourceforge.net/DTD/sodipodi-0.dtd"
   xmlns:inkscape="http://www.inkscape.org/namespaces/inkscape"
   width="2500"
   height="1055"
   viewBox="0 0 256 108"
   preserveAspectRatio="xMinYMin meet"
   version="1.1"
   id="svg39"
   sodipodi:docname="git-logo-vector.svg"
   inkscape:export-filename="C:\Users\Marouane\Downloads\git-logo.png"
   inkscape:export-xdpi="5.8896418"
   inkscape:export-ydpi="5.8896418"
   inkscape:version="0.92.3 (2405546, 2018-03-11)">
  <metadata
     id="metadata45">
    <rdf:RDF>
      <cc:Work
         rdf:about="">
        <dc:format>image/svg+xml</dc:format>
        <dc:type
           rdf:resource="http://purl.org/dc/dcmitype/StillImage" />
      </cc:Work>
    </rdf:RDF>
  </metadata>
  <defs
     id="defs43" />
  <sodipodi:namedview
     pagecolor="#ffffff"
     bordercolor="#666666"
     borderopacity="1"
     objecttolerance="10"
     gridtolerance="10"
     guidetolerance="10"
     inkscape:pageopacity="0"
     inkscape:pageshadow="2"
     inkscape:window-width="1400"
     inkscape:window-height="987"
     id="namedview41"
     showgrid="false"
     inkscape:zoom="0.1136"
     inkscape:cx="1069.5423"
     inkscape:cy="527.5"
     inkscape:window-x="1358"
     inkscape:window-y="-8"
     inkscape:window-maximized="1"
     inkscape:current-layer="svg39" />
  <path
     d="m 151.72235,41.959158 c -4.19775,0 -7.32375,2.061 -7.32375,7.0215 0,3.73725 2.06025,6.33225 7.09725,6.33225 4.26975,0 7.17,-2.51625 7.17,-6.4875 0,-4.5 -2.595,-6.86625 -6.9435,-6.86625 z m -8.3925,35.02575 c -0.99375,1.21875 -1.98375,2.51475 -1.98375,4.0425 0,3.05025 3.8895,3.96825 9.2325,3.96825 4.425,0 10.4535,-0.3105 10.4535,-4.425 0,-2.44575 -2.90025,-2.5965 -6.56475,-2.826 z m 22.58475,-34.7955 c 1.371,1.755 2.823,4.19775 2.823,7.707 0,8.469 -6.63825,13.428 -16.25025,13.428 -2.44425,0 -4.65675,-0.3045 -6.0285,-0.6855 l -2.51925,4.0425 7.47675,0.4575 c 13.2015,0.8415 20.98125,1.224 20.98125,11.36775 0,8.7765 -7.704,13.73325 -20.98125,13.73325 -13.80975,0 -19.07475,-3.51 -19.07475,-9.537 0,-3.4335 1.52625,-5.26125 4.197,-7.7835 -2.5185,-1.06425 -3.357,-2.97075 -3.357,-5.0325 0,-1.68 0.8385,-3.20475 2.214,-4.656 1.3725,-1.4475 2.898,-2.89875 4.7295,-4.57725 -3.738,-1.8315 -6.5625,-5.799 -6.5625,-11.4465 0,-8.77275 5.79975,-14.79825 17.47125,-14.79825 3.282,0 5.2665,0.3015 7.0215,0.76275 h 14.88 v 6.483 z m 20.44425,-13.86525 c -4.35,0 -6.86775,-2.52 -6.86775,-6.87075 0,-4.34475 2.517,-6.7125 6.86775,-6.7125 4.425,0 6.9435,2.36775 6.9435,6.7125 0,4.35075 -2.51775,6.87075 -6.9435,6.87075 z m -9.8445,45.85275 v -6.02475 l 3.8925,-0.5325 c 1.06875,-0.15375 1.22025,-0.38175 1.22025,-1.5285 v -22.4325 c 0,-0.837 -0.228,-1.374 -0.99375,-1.6005 l -4.119,-1.45125 0.8385,-6.1785 h 15.79575 v 31.66275 c 0,1.2225 0.0735,1.37475 1.22175,1.52925 l 3.891,0.5325 v 6.024 z m 51.92025,-2.958 c -3.282,1.60125 -8.08875,3.051 -12.4395,3.051 -9.0795,0 -12.5115,-3.6585 -12.5115,-12.285 v -19.98825 c 0,-0.4575 0,-0.76275 -0.61275,-0.76275 h -5.34 v -6.79275 c 6.71625,-0.765 9.38475,-4.122 10.224,-12.43875 h 7.2495 v 10.8375 c 0,0.5325 0,0.76275 0.61125,0.76275 h 10.75725 v 7.62975 h -11.3685 v 18.23475 c 0,4.5015 1.0695,6.255 5.18775,6.255 2.139,0 4.34925,-0.5325 6.18,-1.2195 l 2.0625,6.7155"
     id="path35"
     inkscape:connector-curvature="0"
     style="fill:#2f2707;stroke-width:0.75" />
  <path
     d="M 112.64168,49.53 66.125676,3.017 a 6.86,6.86 0 0 0 -9.703,0 l -9.659,9.66 12.253,12.252 a 8.145,8.145 0 0 1 8.383,1.953 8.157,8.157 0 0 1 1.936,8.434 l 11.807,11.809 c 2.857,-0.984 6.154,-0.347 8.435,1.938 a 8.161,8.161 0 0 1 0,11.545 8.164,8.164 0 0 1 -13.324,-8.88 l -11.012,-11.012 -0.001,28.98 a 8.248,8.248 0 0 1 2.159,1.544 8.164,8.164 0 0 1 0,11.547 c -3.19,3.19 -8.36,3.19 -11.545,0 a 8.164,8.164 0 0 1 2.672,-13.328 v -29.25 a 8.064,8.064 0 0 1 -2.672,-1.782 c -2.416,-2.413 -2.997,-5.958 -1.759,-8.925 l -12.078,-12.08 -31.894,31.892 a 6.863,6.863 0 0 0 0,9.706 l 46.516,46.514 a 6.862,6.862 0 0 0 9.703,0 L 112.64168,59.237 a 6.866,6.866 0 0 0 0,-9.707"
     id="path37"
     inkscape:connector-curvature="0"
     style="fill:#de4c36" />
</svg>
