<?xml version="1.0" encoding="UTF-8" standalone="no"?>
<svg
   xmlns:dc="http://purl.org/dc/elements/1.1/"
   xmlns:cc="http://creativecommons.org/ns#"
   xmlns:rdf="http://www.w3.org/1999/02/22-rdf-syntax-ns#"
   xmlns:svg="http://www.w3.org/2000/svg"
   xmlns="http://www.w3.org/2000/svg"
   xmlns:sodipodi="http://sodipodi.sourceforge.net/DTD/sodipodi-0.dtd"
   xmlns:inkscape="http://www.inkscape.org/namespaces/inkscape"
   width="2500"
   height="566"
   viewBox="0 0 512 116"
   version="1.1"
   id="svg16"
   sodipodi:docname="jquery.svg"
   inkscape:export-filename="C:\Users\Marouane\Downloads\jquery-logo.png"
   inkscape:export-xdpi="14.178218"
   inkscape:export-ydpi="14.178218"
   inkscape:version="0.92.3 (2405546, 2018-03-11)">
  <metadata
     id="metadata22">
    <rdf:RDF>
      <cc:Work
         rdf:about="">
        <dc:format>image/svg+xml</dc:format>
        <dc:type
           rdf:resource="http://purl.org/dc/dcmitype/StillImage" />
      </cc:Work>
    </rdf:RDF>
  </metadata>
  <defs
     id="defs20" />
  <sodipodi:namedview
     pagecolor="#ffffff"
     bordercolor="#666666"
     borderopacity="1"
     objecttolerance="10"
     gridtolerance="10"
     guidetolerance="10"
     inkscape:pageopacity="0"
     inkscape:pageshadow="2"
     inkscape:window-width="1400"
     inkscape:window-height="987"
     id="namedview18"
     showgrid="false"
     inkscape:zoom="0.32130932"
     inkscape:cx="823.5345"
     inkscape:cy="188.26701"
     inkscape:window-x="1358"
     inkscape:window-y="-8"
     inkscape:window-maximized="1"
     inkscape:current-layer="svg16" />
  <path
     style="fill:#1a1918;fill-rule:evenodd;stroke-width:0.51199996"
     inkscape:connector-curvature="0"
     id="path2"
     d="m 298.07995,32.643512 10.96704,0.06042 c 0,0 -20.38989,27.629568 -22.05491,29.881344 -0.54068,0.729088 -1.36192,1.51552 -1.77869,2.490368 -1.05319,2.450432 -2.13453,7.82592 -2.13453,7.82592 l -10.03469,0.05018 c 0,0 1.5616,-5.603328 1.49709,-8.587776 -0.0563,-2.607104 -1.38752,-5.211136 -2.13402,-7.82592 -0.75468,-2.64704 -1.7792,-7.826432 -1.7792,-7.826432 h 10.3168 l 1.42285,5.691904 15.71226,-21.76" />
  <path
     style="fill:#1a1918;fill-rule:evenodd;stroke-width:0.51199996"
     inkscape:connector-curvature="0"
     id="path4"
     d="m 277.31272,38.470584 c 2.02393,1.220096 3.26604,7.950848 3.26604,7.950848 0,0 -10.5902,0.15616 -16.35328,0.15616 h -4.98022 l -6.04774,26.323968 h -9.24877 c 0,0 5.7559,-28.607488 7.11475,-33.794048 0.44032,-1.67936 3.0167,-1.391104 7.36717,-1.391104 h 6.94733 c 4.48614,0 9.72953,-0.572928 11.93472,0.754176 m -43.05767,12.82048 c 0,0 0.28826,-1.6896 -0.97792,-3.646464 -1.08185,-1.668096 -2.08077,-2.056192 -4.92697,-2.14528 -8.03584,-0.252416 -7.87968,5.702656 -7.87968,5.702656 z m 8.71527,-6.81984 c 1.1776,4.248064 -1.06701,14.229504 -1.06701,14.229504 0,0 -11.72173,-0.195584 -18.14221,0 -1.99629,0.06093 -4.38579,-0.217088 -4.98022,0.71168 -0.8361,1.301504 0.30566,3.30496 1.27334,4.151296 1.1136,0.974336 3.28294,1.08544 4.06272,1.184256 5.21114,0.662016 16.11776,0.171008 16.11776,0.171008 l -1.88928,8.36608 c 0,0 -15.41274,0.77312 -23.12192,-1.067008 -1.52218,-0.362496 -2.94912,-1.095168 -3.91322,-2.134016 -0.26316,-0.28416 -0.49152,-0.671744 -0.74035,-1.006592 -0.19865,-0.267264 -0.77824,-1.145344 -1.03833,-1.839616 -1.76077,-4.691968 0.20633,-13.68064 2.13452,-18.497536 0.22375,-0.55808 0.50484,-1.266176 0.80077,-1.867776 0.36967,-0.75008 0.6825,-1.596928 0.97792,-2.04544 0.19866,-0.309248 0.44493,-0.508416 0.65127,-0.800256 0.23808,-0.345088 0.51507,-0.679424 0.77158,-0.97792 0.71168,-0.825344 1.5191,-1.409024 2.49037,-2.134016 3.21177,-2.405376 9.02451,-4.27264 16.00768,-3.557888 2.62912,0.270336 6.59968,1.209344 8.5376,3.913216 0.51917,0.72192 0.77568,2.15552 1.06701,3.201536 z m -42.42074,-6.787584 8.96819,-0.05274 c 0,0 -4.99814,23.709184 -7.54534,35.270656 h -10.3168 c -7.20999,0 -13.63098,0.892928 -16.36301,-4.269056 -2.65011,-5.011968 -0.12083,-13.254144 1.06701,-18.853888 0.83968,-3.96288 2.60813,-12.06272 2.60813,-12.06272 l 9.29177,-0.08499 c 0,0 -2.62553,12.61056 -3.71814,18.907136 -0.39117,2.25536 -1.19808,4.379136 -0.35533,6.04672 0.80026,1.5872 1.92102,1.700864 5.33555,1.7792 1.08186,0.0256 4.6249,0 4.6249,0 l 6.40307,-26.68032 m -41.97632,17.0752 c 0.93901,-3.336192 2.30861,-6.953984 2.13453,-9.960448 -0.18842,-3.21536 -2.88461,-6.142976 -4.62439,-6.7584 -5.2398,-1.849856 -10.14528,0.736256 -12.09497,2.845696 -2.52211,2.732032 -3.37613,5.923328 -4.26906,10.3168 -0.66457,3.26144 -1.20934,6.70464 0,9.248256 2.14119,4.496896 8.81869,3.51488 16.00819,3.557888 1.06701,-2.860032 1.94919,-6.07232 2.8457,-9.249792 z m 12.45082,-13.161472 c 1.024,7.448576 -2.90612,15.670272 -5.61357,22.81984 2.7607,0.249344 5.1799,-0.0384 5.35398,0.167424 0.18125,0.266752 -1.85037,8.534016 -2.55846,8.55552 -2.19085,0.05683 -9.45101,0.117248 -12.47847,0.117248 -9.87904,0 -19.12064,0.643584 -23.8336,-4.268544 -1.91385,-1.995776 -3.23737,-5.418496 -3.55788,-7.826432 -0.53351,-4.019712 0.13516,-8.44544 1.06752,-12.094464 0.84326,-3.29472 1.92409,-6.403584 3.55737,-9.249792 4.1513,-7.245824 11.37255,-12.624384 23.47776,-11.382784 2.34803,0.241664 5.72007,1.26976 7.82643,2.489856 0.14541,0.0855 0.65485,0.491008 0.77159,0.562176 2.84621,1.810944 5.43949,6.132736 5.98733,10.109952 z m -43.70893,-3.87072 c -0.59751,2.72128 -1.19501,5.80608 -1.82477,8.495104 h -9.96045 c 0.77159,-2.980864 1.36243,-5.94432 2.13453,-8.5376 3.1872,0 6.15066,0.0425 9.6512,0.0425 m -12.14157,10.985472 h 9.60512 c -1.25593,6.950912 -3.74272,18.1632 -5.6919,25.968128 -1.2201,4.88448 -2.03469,8.448512 -5.33607,11.027458 -0.29542,0.231424 -0.46592,0.121344 -0.71168,0.35584 -0.60825,0.580096 -3.4222,1.252864 -4.97971,1.422848 -2.53286,0.274432 -5.39648,0.03584 -8.509436,-0.02816 0.814586,-2.977282 1.736186,-6.552578 2.462206,-9.221122 7.58784,0.918528 7.77984,-6.253568 9.24877,-13.161472 0.84992,-3.991552 3.42579,-14.763008 3.9127,-16.36352" />
  <g
     style="fill:#21609b;fill-rule:evenodd"
     id="g12">
    <path
       inkscape:connector-curvature="0"
       id="path6"
       d="m 88.708,75.464 -0.402,1.042 C 81.456,89.846 69.317,98.03 52.003,98.391 43.909,98.558 36.197,96.481 31.159,94.223 20.287,89.338 11.142,80.279 6.148,70.6 -1.016,56.725 -2.308,37.424 12.588,23.008 c 0.23,0 -1.807,3.126 -1.577,3.126 l -0.41,1.334 C -0.133,61.074 32.938,89.874 65.086,86.58 72.812,85.788 82.664,81.557 88.708,75.464" />
    <path
       inkscape:connector-curvature="0"
       id="path8"
       d="M 69.254,61.568 C 77.342,61.623 85.79,57.843 90.793,52.536 86.416,63.646 73.743,70.787 56.749,68.516 42.519,66.612 28.964,52.293 27.568,37.945 26.547,27.503 30.186,21.271 36.183,13.711 c -2.084,3.954 -2.863,7.003 -3.057,8.948 -2.278,22.588 18.044,38.79 36.128,38.909" />
    <path
       inkscape:connector-curvature="0"
       id="path10"
       d="m 89.98,33.512 c -1.257,2.884 -8.496,8.33 -11.693,9.011 -12.659,2.697 -20.766,-3.306 -25.013,-10.137 -0.631,-1.02 -1.798,-3.806 -2.007,-4.515 -1.647,-5.6 -0.89,-14.07 4.023,-18.454 -1.48,4.169 -1.696,9.011 -0.917,12.159 0.472,1.903 1.91,5.226 3.349,7.316 2.618,3.807 4.279,4.732 7.642,6.754 1.515,0.91 3.14,1.64 3.842,1.84 3.189,0.939 9.922,3.412 20.775,-3.974" />
  </g>
</svg>
