<?xml version="1.0" encoding="UTF-8" standalone="no"?>
<svg
   xmlns:dc="http://purl.org/dc/elements/1.1/"
   xmlns:cc="http://creativecommons.org/ns#"
   xmlns:rdf="http://www.w3.org/1999/02/22-rdf-syntax-ns#"
   xmlns:svg="http://www.w3.org/2000/svg"
   xmlns="http://www.w3.org/2000/svg"
   xmlns:sodipodi="http://sodipodi.sourceforge.net/DTD/sodipodi-0.dtd"
   xmlns:inkscape="http://www.inkscape.org/namespaces/inkscape"
   height="2500"
   viewBox="0 -.11376601 49.74245785 51.31690859"
   width="2418"
   version="1.1"
   id="svg4"
   sodipodi:docname="laravel-2.svg"
   inkscape:export-filename="C:\Users\Marouane\Downloads\laravel-logo.png"
   inkscape:export-xdpi="2.472645"
   inkscape:export-ydpi="2.472645"
   inkscape:version="0.92.3 (2405546, 2018-03-11)">
  <metadata
     id="metadata10">
    <rdf:RDF>
      <cc:Work
         rdf:about="">
        <dc:format>image/svg+xml</dc:format>
        <dc:type
           rdf:resource="http://purl.org/dc/dcmitype/StillImage" />
      </cc:Work>
    </rdf:RDF>
  </metadata>
  <defs
     id="defs8" />
  <sodipodi:namedview
     pagecolor="#ffffff"
     bordercolor="#666666"
     borderopacity="1"
     objecttolerance="10"
     gridtolerance="10"
     guidetolerance="10"
     inkscape:pageopacity="0"
     inkscape:pageshadow="2"
     inkscape:window-width="1366"
     inkscape:window-height="705"
     id="namedview6"
     showgrid="false"
     inkscape:zoom="0.0472"
     inkscape:cx="729.70895"
     inkscape:cy="1016.9178"
     inkscape:window-x="-8"
     inkscape:window-y="-8"
     inkscape:window-maximized="1"
     inkscape:current-layer="svg4" />
  <path
     d="m49.626 11.564a.809.809 0 0 1 .028.209v10.972a.8.8 0 0 1 -.402.694l-9.209 5.302v10.509c0 .286-.152.55-.4.694l-19.223 11.066c-.044.025-.092.041-.14.058-.018.006-.035.017-.054.022a.805.805 0 0 1 -.41 0c-.022-.006-.042-.018-.063-.026-.044-.016-.09-.03-.132-.054l-19.219-11.066a.801.801 0 0 1 -.402-.694v-32.916c0-.072.01-.142.028-.21.006-.023.02-.044.028-.067.015-.042.029-.085.051-.124.015-.026.037-.047.055-.071.023-.032.044-.065.071-.093.023-.023.053-.04.079-.06.029-.024.055-.05.088-.069h.001l9.61-5.533a.802.802 0 0 1 .8 0l9.61 5.533h.002c.032.02.059.045.088.068.026.02.055.038.078.06.028.029.048.062.072.094.017.024.04.045.054.071.023.04.036.082.052.124.008.023.022.044.028.068a.809.809 0 0 1 .028.209v20.559l8.008-4.611v-10.51c0-.07.01-.141.028-.208.007-.024.02-.045.028-.068.016-.042.03-.085.052-.124.015-.026.037-.047.054-.071.024-.032.044-.065.072-.093.023-.023.052-.04.078-.06.03-.024.056-.05.088-.069h.001l9.611-5.533a.801.801 0 0 1 .8 0l9.61 5.533c.034.02.06.045.09.068.025.02.054.038.077.06.028.029.048.062.072.094.018.024.04.045.054.071.023.039.036.082.052.124.009.023.022.044.028.068zm-1.574 10.718v-9.124l-3.363 1.936-4.646 2.675v9.124l8.01-4.611zm-9.61 16.505v-9.13l-4.57 2.61-13.05 7.448v9.216zm-36.84-31.068v31.068l17.618 10.143v-9.214l-9.204-5.209-.003-.002-.004-.002c-.031-.018-.057-.044-.086-.066-.025-.02-.054-.036-.076-.058l-.002-.003c-.026-.025-.044-.056-.066-.084-.02-.027-.044-.05-.06-.078l-.001-.003c-.018-.03-.029-.066-.042-.1-.013-.03-.03-.058-.038-.09v-.001c-.01-.038-.012-.078-.016-.117-.004-.03-.012-.06-.012-.09v-21.483l-4.645-2.676-3.363-1.934zm8.81-5.994-8.007 4.609 8.005 4.609 8.006-4.61-8.006-4.608zm4.164 28.764 4.645-2.674v-20.096l-3.363 1.936-4.646 2.675v20.096zm24.667-23.325-8.006 4.609 8.006 4.609 8.005-4.61zm-.801 10.605-4.646-2.675-3.363-1.936v9.124l4.645 2.674 3.364 1.937zm-18.422 20.561 11.743-6.704 5.87-3.35-8-4.606-9.211 5.303-8.395 4.833z"
     fill="#ff2d20"
     id="path2" />
  <path
     inkscape:connector-curvature="0"
     style="fill:#ff2d20;stroke-width:0.91009277"
     d="m 60.046491,14.129619 v 20.977638 h 7.590174 v 3.613068 H 56.005681 V 14.129619 Z m 21.842226,10.429662 v -2.211524 h 3.84059 v 16.38167 h -3.822388 v -2.220628 c -0.527854,0.819084 -1.255928,1.45615 -2.202426,1.911196 -0.946496,0.482348 -1.911192,0.709872 -2.86679,0.709872 -1.246828,0 -2.384444,-0.227524 -3.412848,-0.68257 a 7.9724126,7.9724126 0 0 1 -2.65747,-1.87479 8.7368904,8.7368904 0 0 1 -1.729176,-2.73028 8.8461016,8.8461016 0 0 1 -0.609764,-3.312738 c 0,-1.146716 0.209322,-2.247928 0.618864,-3.276332 a 8.7004866,8.7004866 0 0 1 1.729176,-2.766682 7.9815136,7.9815136 0 0 1 2.63927,-1.892994 c 1.037504,-0.455046 2.184222,-0.68257 3.412848,-0.68257 0.955598,0 1.911192,0.236624 2.857688,0.700772 0.946498,0.473248 1.674572,1.110314 2.184224,1.929396 z m -0.345836,7.981514 a 5.7335844,5.7335844 0 0 0 0.364038,-2.002204 c 0,-0.709872 -0.12742,-1.36514 -0.364038,-2.002204 a 5.0783174,5.0783174 0 0 0 -0.9829,-1.66547 4.759785,4.759785 0 0 0 -1.528956,-1.110314 4.6960784,4.6960784 0 0 0 -1.984,-0.427742 c -0.728074,0 -1.383342,0.15472 -1.965802,0.436844 a 4.8234916,4.8234916 0 0 0 -1.510754,1.101212 4.8234916,4.8234916 0 0 0 -0.964698,1.66547 5.9702082,5.9702082 0 0 0 -0.336734,2.002204 c 0,0.700772 0.10922,1.365138 0.336734,2.002204 0.218422,0.637064 0.546056,1.18312 0.964698,1.638166 a 4.8052898,4.8052898 0 0 0 1.510754,1.137618 c 0.58246,0.273026 1.237728,0.418642 1.965802,0.418642 0.728074,0 1.39244,-0.13652 1.984,-0.418642 a 4.750684,4.750684 0 0 0 1.528956,-1.128516 5.0783174,5.0783174 0 0 0 0.9829,-1.638168 z m 7.207934,6.188632 v -16.38167 h 10.39326 v 3.767782 h -6.57087 v 12.604786 h -3.82239 z M 113.02299,24.559281 v -2.211524 h 3.82239 v 16.38167 h -3.82239 v -2.220628 c -0.50965,0.819084 -1.24683,1.45615 -2.18423,1.911196 -0.95559,0.482348 -1.91119,0.709872 -2.87589,0.709872 -1.24683,0 -2.38444,-0.227524 -3.41284,-0.68257 a 7.9724126,7.9724126 0 0 1 -2.65748,-1.87479 8.7368904,8.7368904 0 0 1 -1.72917,-2.73028 8.8461016,8.8461016 0 0 1 -0.600663,-3.312738 c 0,-1.146716 0.200222,-2.247928 0.609763,-3.276332 a 8.7004866,8.7004866 0 0 1 1.72917,-2.766682 7.9815136,7.9815136 0 0 1 2.63927,-1.892994 c 1.03751,-0.455046 2.18423,-0.68257 3.41285,-0.68257 0.9556,0 1.9112,0.236624 2.85769,0.700772 0.9465,0.473248 1.68367,1.110314 2.18423,1.929396 z m -0.34584,7.981514 a 5.7335844,5.7335844 0 0 0 0.34584,-2.002204 c 0,-0.709872 -0.11832,-1.36514 -0.34584,-2.002204 a 5.0783174,5.0783174 0 0 0 -0.9738,-1.66547 4.759785,4.759785 0 0 0 -1.54715,-1.110314 c -0.59156,-0.273026 -1.25593,-0.427742 -1.97491,-0.427742 -0.72807,0 -1.38334,0.15472 -1.9749,0.436844 a 4.8234916,4.8234916 0 0 0 -1.51075,1.101212 4.8234916,4.8234916 0 0 0 -0.9647,1.66547 5.9702082,5.9702082 0 0 0 -0.32763,2.002204 c 0,0.700772 0.1092,1.365138 0.32763,2.002204 0.22752,0.637064 0.54606,1.18312 0.9647,1.638166 a 4.8052898,4.8052898 0 0 0 1.51075,1.137618 c 0.59156,0.273026 1.24683,0.418642 1.9749,0.418642 0.72808,0 1.38335,-0.13652 1.98401,-0.418642 a 4.750684,4.750684 0 0 0 1.54715,-1.128516 5.0783174,5.0783174 0 0 0 0.9738,-1.638168 z m 19.53059,-10.193038 h 3.8861 l -6.27964,16.38167 h -4.82349 l -6.27964,-16.38167 h 3.8679 l 4.82349,12.541078 4.80528,-12.531978 z m 12.23165,-0.418644 c 5.21483,0 8.7733,4.623272 8.09983,10.029222 h -12.714 c 0,1.401544 1.43795,4.131822 4.82349,4.131822 2.9123,0 4.869,-2.54826 4.869,-2.54826 l 2.58466,2.002204 c -2.32074,2.45725 -4.21373,3.594866 -7.18973,3.594866 -5.29674,0 -8.8825,-3.367342 -8.8825,-8.618578 0,-4.759786 3.71317,-8.609478 8.40015,-8.609478 z m -4.59597,7.189732 h 9.19194 c -0.0364,-0.318532 -0.54605,-4.150022 -4.62327,-4.150022 -4.09542,0 -4.53226,3.840592 -4.56867,4.150022 z m 15.19856,9.583278 V 14.129619 h 3.82238 v 24.590706 h -3.82238 z"
     id="path2-6" />
</svg>
